# xmcd
#
# Track frame offsets:
# 150
# 19743
# 46575
# 66076
# 87374
# 107033
# 123050
# 145147
# 169674
# 181607
# 202709
# 228410
# 244727
# 261394
#
# Disc length: 3680 seconds
#
#
# Revision: 0
# Processed by: cddbd v1.4PL0 Copyright (c) Steve Scherf et al.
# Submitted via: FreeRIP 2.11 
#
DISCID=ac0e5e0e
DTITLE=Non Blues Ultra - In Asprine Wine We Trust
DYEAR=2003
DGENRE=Blues
TTITLE0=Roadhouse Blues
TTITLE1=Mustang Sally
TTITLE2=Give It To Get It
TTITLE3=Sweet Home Alabama
TTITLE4=Hard To Handle/Sex Machine
TTITLE5=New Orleans
TTITLE6=If You're Thinkin' What I'm Thinkin'
TTITLE7=Sotto Viale Augusto
TTITLE8=Days of Old
TTITLE9=O' Billoco l'Acqua
TTITLE10=Sweet Home Chicago
TTITLE11=Burn To Shine
TTITLE12=Always On The Run
TTITLE13=Foxy Lady
EXTD=Recorded Live in Cesa, 29/06/2003
EXTT0=
EXTT1=
EXTT2=
EXTT3=
EXTT4=
EXTT5=
EXTT6=
EXTT7=
EXTT8=
EXTT9=
EXTT10=
EXTT11=
EXTT12=
EXTT13=
PLAYORDER=
